<svg id="Layer_1" data-name="Layer 1" xmlns="http://www.w3.org/2000/svg" viewBox="0 0 471.24 144"><defs><style>.cls-1{fill:#fff;}</style></defs><title>Zeldathon Sounds</title><path class="cls-1" d="M94.22,134L120,111.37,107.21,144,4.33,143.83,89.9,9.32H31.13L0,35,15.65,0H119L32.8,134H94.22Zm-69.59-3.66L53.11,94.56l-0.5-9-8,3.66ZM57.27,69.59l0.33,8.32,8.16-2.83V66.59ZM69.59,50.27l-0.67,9.16,9.49-3.83,18.31-40Z"/><path class="cls-1" d="M166.8,1.71V26.13L158.47,5.48H144.89V33.09H153l5.48-8.22V45.53l-5.25-7.65h-8.33V65.5h14l7.87-25.79v31H126.75l5-4.34V6.16l-5-4.45H166.8Z"/><path class="cls-1" d="M169.42,70.75L175,66.52V6.28l-5.59-4.56h24.64l-5.47,3.88V66.3h7.87L204.57,41V70.75H169.42Z"/><path class="cls-1" d="M250.89,33a53.28,53.28,0,0,1-2.17,19.29,33.21,33.21,0,0,1-3.14,7,23.61,23.61,0,0,1-5.08,6,23.33,23.33,0,0,1-7.41,4.16,27,27,0,0,1-10.15,1.31H206.51l6-4.91V6.62l-6.39-5.14h15.52a31,31,0,0,1,14.26,3.19,25.56,25.56,0,0,1,5.31,3.6,23,23,0,0,1,4.62,5.65A34.69,34.69,0,0,1,249.3,22,45.25,45.25,0,0,1,250.89,33ZM229.33,64.47A23.67,23.67,0,0,0,232.64,62a16.33,16.33,0,0,0,3.65-5,33.68,33.68,0,0,0,2.8-8.73,68.08,68.08,0,0,0,1-13.86,43.26,43.26,0,0,0-.91-12,45.69,45.69,0,0,0-1.43-4.79,21.66,21.66,0,0,0-2.22-4.51,17.78,17.78,0,0,0-3.37-3.82,14.2,14.2,0,0,0-4.62-2.62,6.68,6.68,0,0,0-1.71-.34h-1.71V65.61a7.1,7.1,0,0,0,1.83,0A9.07,9.07,0,0,0,229.33,64.47Z"/><path class="cls-1" d="M272.8,70.75l5.14-5.93L274.29,47H260l-4.68,18.26,6,5.48H240.17l8-5.93L264,7.3,256.83,1.6h17.8L292.2,65.73l6.62,5h-26Zm0.34-28-6-24.19-5.93,24.19h12Z"/><path class="cls-1" d="M290.61,25.56V1.71h39.71V25.79L322.44,7h-5.36V66.07l5,4.68h-23l5.14-4.45V7h-6Z"/><path class="cls-1" d="M374.7,5.71v59.9l4.44,5.14H357.47l5.37-5.14V38.8H348V66l5,4.79H331.68L336.25,66V6.28l-5.14-4.56h21.11L348,6.62V33.77h14.84V6.28l-4.68-4.56h21.45Z"/><path class="cls-1" d="M423.87,13.92a38.84,38.84,0,0,1,3.43,10.21,62.33,62.33,0,0,1,.69,19.4,61.07,61.07,0,0,1-1.32,7.19,46.77,46.77,0,0,1-2.11,6.56,37.18,37.18,0,0,1-2.74,5.48,18.08,18.08,0,0,1-7.64,7.19A22.36,22.36,0,0,1,404.71,72a20.18,20.18,0,0,1-9.82-2.62,22.72,22.72,0,0,1-8.1-7.65,29.44,29.44,0,0,1-4.57-11.46A76.29,76.29,0,0,1,381,36.17a68.7,68.7,0,0,1,1.09-12.49A35.33,35.33,0,0,1,385.76,13,27.56,27.56,0,0,1,394,3.48,18.24,18.24,0,0,1,404.71,0a17.85,17.85,0,0,1,10.84,3.71A28.27,28.27,0,0,1,423.87,13.92ZM404.6,67a6.11,6.11,0,0,0,4.62-2.4,20.66,20.66,0,0,0,3.65-6.5,51.31,51.31,0,0,0,2.46-9.75,76.88,76.88,0,0,0,.91-12.16,77.59,77.59,0,0,0-.91-12.26A51.11,51.11,0,0,0,412.8,14a21.47,21.47,0,0,0-3.71-6.62A6.14,6.14,0,0,0,404.47,5a6.35,6.35,0,0,0-4.62,2.4A20.13,20.13,0,0,0,396,14a53.05,53.05,0,0,0-2.56,9.87,72.18,72.18,0,0,0-1,12.26,71.52,71.52,0,0,0,1,12.16,47.53,47.53,0,0,0,2.62,9.75,21,21,0,0,0,3.88,6.5A6.38,6.38,0,0,0,404.6,67Z"/><path class="cls-1" d="M431.52,66V6.5l-5.7-4.79h13.46l20.88,39.14V5.59l-4.79-3.88h15.86l-3.66,3.42V70.75h-7.41L439.29,28.64V65.73l4.9,5H425.82Z"/><path class="cls-1" d="M231.46,137.53l6.14-6.71q3.47,3.62,7.22,3.61a6.73,6.73,0,0,0,5-1.85c1.25-1.24,1.86-3.12,1.86-5.65a12.11,12.11,0,0,0-1.88-6.27,38.35,38.35,0,0,0-4.59-6.07c-1.79-2-3.59-4-5.38-6.15a31,31,0,0,1-4.61-7.73,23.92,23.92,0,0,1-1.93-9.51,23.37,23.37,0,0,1,1.48-8.76,12.25,12.25,0,0,1,4-5.5,16.34,16.34,0,0,1,5.07-2.6,18.71,18.71,0,0,1,5.36-.76q8.36,0,12.65,6L256,86q-2.77-3.52-6.24-3.52-6.58,0-6.58,8.38,0,3.62,2.91,7.92a54.07,54.07,0,0,0,6.32,7.76,39.63,39.63,0,0,1,6.28,8.59,20.39,20.39,0,0,1,2.88,10q0,8.7-4.41,13.69t-12.23,5Q235.62,143.77,231.46,137.53Z"/><path class="cls-1" d="M266.17,121.45V95.8q0-2.54,0-3.86t0.18-3.79a17.85,17.85,0,0,1,.55-3.88q0.42-1.41,1.13-3.4A8.23,8.23,0,0,1,270,77.74a22,22,0,0,1,2.8-2.29,10.83,10.83,0,0,1,3.93-1.64,24.52,24.52,0,0,1,5.24-.51,25.51,25.51,0,0,1,5.31.51,10,10,0,0,1,4,1.71A30.52,30.52,0,0,1,294,77.85,8.19,8.19,0,0,1,295.93,81l1.16,3.42a16.77,16.77,0,0,1,.62,3.9q0.16,2.47.21,3.84T298,96v25.28q0,2.54,0,3.88t-0.18,3.79a14.42,14.42,0,0,1-.65,3.88l-1.16,3.47a7.65,7.65,0,0,1-1.89,3.17,30.61,30.61,0,0,1-2.8,2.31,10.43,10.43,0,0,1-4,1.71,24.44,24.44,0,0,1-5.31.53,23.49,23.49,0,0,1-5.24-.53,11.13,11.13,0,0,1-3.93-1.66,23.4,23.4,0,0,1-2.8-2.26,8,8,0,0,1-1.89-3.12q-0.72-2-1.13-3.42a18.15,18.15,0,0,1-.55-3.88q-0.14-2.45-.18-3.79T266.17,121.45Zm9.93,0.79q0,2.36,0,3.49t0.18,2.89a9.29,9.29,0,0,0,.51,2.66,10.67,10.67,0,0,0,1,1.89,3.42,3.42,0,0,0,1.71,1.36,7.72,7.72,0,0,0,2.56.37,5.9,5.9,0,0,0,3.35-.85,4.78,4.78,0,0,0,1.8-2.93,19.71,19.71,0,0,0,.62-3.74q0.09-1.66.09-5.13V94.88q0-3.51-.09-5.18a19.71,19.71,0,0,0-.62-3.74,4.78,4.78,0,0,0-1.8-2.93,5.9,5.9,0,0,0-3.35-.85,5.66,5.66,0,0,0-3,.72,5.82,5.82,0,0,0-1.8,1.62,7,7,0,0,0-.9,2.93q-0.28,2-.32,3.4t0,4.23v27.17Z"/><path class="cls-1" d="M304.38,121.27V74.59h9.93V122q0,2.36,0,3.51t0.18,2.91a9.29,9.29,0,0,0,.51,2.66,10.67,10.67,0,0,0,1,1.89,3.42,3.42,0,0,0,1.71,1.36,7.72,7.72,0,0,0,2.56.37,5.9,5.9,0,0,0,3.35-.85,4.78,4.78,0,0,0,1.8-2.93,19.71,19.71,0,0,0,.62-3.74q0.09-1.66.09-5.18V74.59h9.93v46.49q0,2.54,0,3.88t-0.18,3.79a14.42,14.42,0,0,1-.65,3.88l-1.16,3.47a7.65,7.65,0,0,1-1.89,3.17,30.61,30.61,0,0,1-2.8,2.31,10.43,10.43,0,0,1-4,1.71,24.44,24.44,0,0,1-5.31.53,23.49,23.49,0,0,1-5.24-.53,11.13,11.13,0,0,1-3.93-1.66,23.4,23.4,0,0,1-2.8-2.26,8,8,0,0,1-1.89-3.12q-0.72-2-1.13-3.42a18.15,18.15,0,0,1-.55-3.88q-0.14-2.45-.18-3.79T304.38,121.27Z"/><path class="cls-1" d="M342.87,142.75V74.59h10l12.58,45.89V74.59h8v68.16h-9.84L350.91,96.06v46.69h-8Z"/><path class="cls-1" d="M380.53,142.75V74.59h11q12.11,0,16.2,3.84t4.09,16.27v27.54a52.79,52.79,0,0,1-.85,10.72,11.14,11.14,0,0,1-3.42,6.19,12.66,12.66,0,0,1-6.26,2.93,61.09,61.09,0,0,1-10.3.67h-10.4Zm9.38-9.38h2.36q6.61,0,8.09-1.94t1.48-10.14V94.76c0-4.73-.57-7.72-1.71-8.94S396.46,84,392.55,84h-2.63v49.4Z"/><path class="cls-1" d="M415,137.53l6.15-6.71q3.47,3.62,7.22,3.61a6.76,6.76,0,0,0,5-1.85c1.24-1.24,1.86-3.12,1.86-5.65a12,12,0,0,0-1.89-6.27,38.76,38.76,0,0,0-4.58-6.07q-2.69-2.93-5.38-6.15a31,31,0,0,1-4.61-7.73,23.92,23.92,0,0,1-1.93-9.51,23.53,23.53,0,0,1,1.47-8.76,12.32,12.32,0,0,1,4-5.5,16.31,16.31,0,0,1,5.06-2.6,18.72,18.72,0,0,1,5.37-.76q8.36,0,12.65,6L439.6,86q-2.78-3.52-6.25-3.52-6.57,0-6.57,8.38,0,3.62,2.9,7.92A54.6,54.6,0,0,0,436,106.5a39.64,39.64,0,0,1,6.29,8.59,20.47,20.47,0,0,1,2.88,10q0,8.7-4.41,13.69t-12.23,5Q419.2,143.77,415,137.53Z"/><path class="cls-1" d="M152.63,135.66v-2.23a9.66,9.66,0,0,1,5.93-6.32,18.3,18.3,0,0,1,11.87-1,47.09,47.09,0,0,1,4.53,1.56V85.41l0.63-.19L216.86,74c2.33-.64,4.64-1.3,7-2a0.57,0.57,0,0,1,.27.14,2,2,0,0,1,0,.49v49.63c-1,3.61-3.7,5.55-7,6.75a18.83,18.83,0,0,1-10.91.55,13.08,13.08,0,0,1-7.07-3.93,6.48,6.48,0,0,1,0-9,11.1,11.1,0,0,1,4.37-3,18.51,18.51,0,0,1,15.71.62c0.14,0.07.28,0.11,0.43,0.17v-20l-0.58.17q-19.5,6.5-39,13a0.71,0.71,0,0,0-.59.83c0,8.61,0,17.21,0,25.82a7.14,7.14,0,0,1-2.14,5.2,11.84,11.84,0,0,1-5.15,3.09c-1.37.42-2.78,0.67-4.18,1h-3.91c-0.5-.09-1-0.18-1.49-0.28C158.09,142.24,154.17,140.52,152.63,135.66Zm26.85-42.53v10.07c0.18,0,.32-0.07.45-0.11L219.13,90a0.64,0.64,0,0,0,.52-0.73c0-2.19,0-4.37,0-6.56,0-.17,0-0.34,0-0.55Z"/></svg>