<?xml version="1.0" encoding="utf-8"?>
<!-- Generator: Adobe Illustrator 16.0.3, SVG Export Plug-In . SVG Version: 6.00 Build 0)  -->
<!DOCTYPE svg PUBLIC "-//W3C//DTD SVG 1.1//EN" "http://www.w3.org/Graphics/SVG/1.1/DTD/svg11.dtd">
<svg version="1.1" id="Layer_1" xmlns="http://www.w3.org/2000/svg" xmlns:xlink="http://www.w3.org/1999/xlink" x="0px" y="0px"
	 width="150px" height="150px" viewBox="0 0 150 150" enable-background="new 0 0 150 150" xml:space="preserve">
<g id="XMLID_1_">
	<g>
		<path fill="#8CC63F" d="M144.681,79.581c0,0.158,0,0.308-0.01,0.466H74.888l-0.251-0.252l49.329-49.329l0.251-0.251
			C136.863,42.843,144.681,60.3,144.681,79.581z"/>
		<path fill="#15D6FF" d="M144.671,80.047c-0.121,19.206-8.003,36.57-20.668,49.115l-0.037-0.038L74.888,80.047H144.671z"/>
		<path fill="#4F4AFF" d="M123.966,129.124l0.037,0.038c-12.609,12.487-29.964,20.211-49.115,20.211c-0.158,0-0.307,0-0.465-0.009
			V80.047h0.465L123.966,129.124z"/>
		<path fill="#FCEE4E" d="M74.888,9.789c19.262,0,36.702,7.807,49.329,20.426l-0.251,0.251L74.637,79.795l-0.214-0.214V9.798
			C74.581,9.789,74.73,9.789,74.888,9.789z"/>
		<path fill="#B654FF" d="M74.423,80.047v69.317c-19.095-0.121-36.376-7.91-48.901-20.454l48.864-48.863H74.423z"/>
		<path fill="#E8313C" d="M74.423,79.581v0.429l-0.038,0.037H5.105c-0.009-0.158-0.009-0.308-0.009-0.466
			c0-19.151,7.714-36.506,20.212-49.115L74.423,79.581z"/>
		<path fill="#F7934A" d="M74.423,9.798v69.783L25.308,30.466C37.852,17.801,55.216,9.919,74.423,9.798z"/>
		<path fill="#FF8ABC" d="M5.105,80.047h69.28L25.521,128.91C13.005,116.385,5.226,99.123,5.105,80.047z"/>
	</g>
	<g>
	</g>
</g>
<polygon fill="#808080" points="59.853,1 74.329,26.075 88.806,1 "/>
</svg>
