<?xml version="1.0" encoding="utf-8"?>
<!-- Generator: Adobe Illustrator 16.0.3, SVG Export Plug-In . SVG Version: 6.00 Build 0)  -->
<!DOCTYPE svg PUBLIC "-//W3C//DTD SVG 1.1//EN" "http://www.w3.org/Graphics/SVG/1.1/DTD/svg11.dtd">
<svg version="1.1" id="Layer_1" xmlns="http://www.w3.org/2000/svg" xmlns:xlink="http://www.w3.org/1999/xlink" x="0px" y="0px"
	 width="150px" height="150px" viewBox="0 0 396 396" enable-background="new 0 0 396 396" xml:space="preserve">
<circle fill="none" stroke="#FFFFFF" stroke-width="15" stroke-miterlimit="10" cx="197.858" cy="198.294" r="188.863"/>
<ellipse fill="#FFFFFF" stroke="#FFFFFF" stroke-miterlimit="10" cx="197.45" cy="150.152" rx="89.811" ry="102.683"/>
<polygon fill="#FFFFFF" stroke="#FFFFFF" stroke-miterlimit="10" points="177.381,260.5 197.548,234.763 217.715,260.5 "/>
<g>
	<g>
		<path fill="#FFFFFF" d="M196.886,253.719c-13.868,11.575-33.071,35.219-15.912,52.043c8.183,8.022,20.632,9.848,28.325,18.665
			c3.446,3.95,3.993,10.479,0.631,14.6c-3.905,4.785-10.939,5.782-16.705,5.654c-5.807-0.129-5.795,8.871,0,9
			c11.462,0.254,24.035-4.359,27.403-16.377c3.553-12.677-6.723-22.523-16.554-28.255c-8.732-5.091-23.024-9.022-20.607-21.797
			c2.066-10.92,11.603-20.342,19.783-27.17C207.711,256.359,201.309,250.027,196.886,253.719L196.886,253.719z"/>
	</g>
</g>
</svg>
