<?xml version="1.0" encoding="utf-8"?>
<!-- Generator: Adobe Illustrator 16.0.3, SVG Export Plug-In . SVG Version: 6.00 Build 0)  -->
<!DOCTYPE svg PUBLIC "-//W3C//DTD SVG 1.1//EN" "http://www.w3.org/Graphics/SVG/1.1/DTD/svg11.dtd">
<svg version="1.1" id="Layer_1" xmlns="http://www.w3.org/2000/svg" xmlns:xlink="http://www.w3.org/1999/xlink" x="0px" y="0px"
	 width="50px" height="50px" viewBox="0 0 396 396" enable-background="new 0 0 396 396" xml:space="preserve">
<circle fill="none" stroke="#FFFFFF" stroke-width="15" stroke-miterlimit="10" cx="197.858" cy="198.294" r="188.863"/>
<rect x="183.983" y="71.943" transform="matrix(0.8016 0.5979 -0.5979 0.8016 148.8887 -87.1298)" fill="#FFFFFF" stroke="#FFFFFF" stroke-miterlimit="10" width="43.48" height="217.645"/>
<line fill="none" stroke="#FFFFFF" stroke-miterlimit="10" x1="253.359" y1="80.538" x2="290.268" y2="67.417"/>
<line fill="none" stroke="#FFFFFF" stroke-miterlimit="10" x1="290.268" y1="67.417" x2="288.213" y2="106.534"/>
<line fill="none" stroke="#FFFFFF" stroke-miterlimit="10" x1="252.888" y1="80.187" x2="287.741" y2="106.183"/>
<g>
	<g>
		<path fill="#FFFFFF" d="M269.182,87.834c1.935,0,1.935-3,0-3S267.247,87.834,269.182,87.834L269.182,87.834z"/>
	</g>
</g>
<g>
	<g>
		<path fill="#FFFFFF" d="M270.093,86.665c4.867-6.173,12.656-8.963,17.148-15.528c1.097-1.601-1.505-3.1-2.59-1.514
			c-4.309,6.294-11.979,8.958-16.68,14.92C266.788,86.045,268.896,88.183,270.093,86.665L270.093,86.665z"/>
	</g>
</g>
<g>
	<g>
		<path fill="#FFFFFF" d="M287.026,68.302c-4.024,5.538-6.251,11.517-7.847,18.127c-0.454,1.88,2.438,2.678,2.893,0.798
			c1.536-6.362,3.672-12.082,7.544-17.411C290.756,68.248,288.151,66.753,287.026,68.302L287.026,68.302z"/>
	</g>
</g>
<g>
	<g>
		<path fill="#FFFFFF" d="M284.965,78.518c-2.492,3.294-5.428,6.422-6.375,10.564c-0.431,1.883,2.461,2.683,2.893,0.798
			c0.88-3.847,3.758-6.788,6.072-9.848C288.723,78.488,286.116,76.996,284.965,78.518L284.965,78.518z"/>
	</g>
</g>
<g>
	<g>
		<path fill="#FFFFFF" d="M284.371,79.313c-3.671,5.113-6.348,11.177-11.329,15.199c0.836,0.221,1.671,0.441,2.507,0.662
			c-0.802-4.814,3.847-8.981,6.512-12.434c-0.914-0.386-1.827-0.771-2.741-1.156c-0.788,3.817-2.411,8.315-5.643,10.728
			c-1.054,0.755-2.182,0.762-3.386,0.019c-2.106-1.086,2.97-4.828,3.14-4.958c2.281-1.741,4.85-3.112,7.199-4.761
			c-0.684-0.684-1.368-1.368-2.052-2.052c-1.003,1.713-1.914,3.476-2.948,5.17c-2.027,3.322-5.33,2.61-8.304,1.062
			c-4.024-2.096-6.828-5.789-11.07-7.627c-1.784-0.773-3.065,1.419-1.514,2.591c9.788,7.39,18.796,15.756,28.872,22.773
			c1.592,1.108,3.089-1.494,1.514-2.591c-10.072-7.014-19.084-15.384-28.872-22.773c-0.505,0.864-1.009,1.727-1.514,2.591
			c5.549,2.405,10.006,9.272,16.513,9.438c5.639,0.144,7.457-4.923,9.913-9.12c0.723-1.234-0.779-2.946-2.052-2.052
			c-4.849,3.403-10.474,5.859-12.856,11.62c-0.196,0.475,0.041,1.12,0.386,1.459c7.838,7.723,14.095-3.592,15.566-10.718
			c0.362-1.755-1.724-2.475-2.741-1.156c-3.415,4.424-7.816,8.732-6.814,14.747c0.205,1.23,1.73,1.289,2.507,0.662
			c5.185-4.186,7.98-10.488,11.798-15.807C288.092,79.252,285.488,77.757,284.371,79.313L284.371,79.313z"/>
	</g>
</g>
<path fill="none" stroke="#FFFFFF" stroke-miterlimit="10" d="M262.485,81.34c5.796,0.611-7.396,19.23-7.396,19.23"/>
<g>
	<g>
		<path fill="#FFFFFF" d="M278.882,98.169c6.273-7.178,5.744-17.323,11.037-25.034c1.099-1.6-1.503-3.098-2.59-1.514
			c-5.12,7.457-4.576,17.571-10.568,24.427C275.493,97.498,277.606,99.628,278.882,98.169L278.882,98.169z"/>
	</g>
</g>
<g>
	<g>
		<path fill="#FFFFFF" d="M263.187,86.105c7.495-2.483,15.366-6.405,19.896-13.12c1.086-1.609-1.515-3.108-2.59-1.515
			c-4.051,6.005-11.422,9.528-18.103,11.742C260.563,83.818,261.345,86.716,263.187,86.105L263.187,86.105z"/>
	</g>
</g>
<g>
	<g>
		<path fill="#FFFFFF" d="M258.869,81.647c10.056-1.9,19.125-9.133,29.605-8.5c-0.482-0.633-0.964-1.266-1.446-1.899
			c-2.058,10.312,0.788,20.877-2.321,31.058c-0.566,1.855,2.329,2.643,2.893,0.798c3.121-10.221,0.263-20.744,2.321-31.058
			c0.198-0.993-0.428-1.837-1.446-1.899c-10.838-0.655-20.035,6.648-30.402,8.607C256.173,79.114,256.979,82.005,258.869,81.647
			L258.869,81.647z"/>
	</g>
</g>
<g>
	<g>
		<path fill="#FFFFFF" d="M285.371,102.5c-2.436-6.447,0.445-12.759,2.788-18.776c0.703-1.806-2.199-2.58-2.893-0.798
			c-2.552,6.553-5.425,13.392-2.788,20.372C283.155,105.089,286.057,104.313,285.371,102.5L285.371,102.5z"/>
	</g>
</g>
<g>
	<g>
		<path fill="#FFFFFF" d="M283.733,87.171c0.098,5.022,1.443,10.24,0.23,15.199c-0.46,1.879,2.433,2.676,2.893,0.798
			c1.292-5.28-0.019-10.657-0.123-15.997C286.695,85.239,283.695,85.236,283.733,87.171L283.733,87.171z"/>
	</g>
</g>
<g>
	<g>
		<path fill="#FFFFFF" d="M286.913,103.269c-2.845-1.868-6.265-4.722-4.827-8.608c-0.964,0-1.929,0-2.893,0
			c0.372,1.341,0.824,2.646,1.195,3.986c0.836-0.487,1.671-0.973,2.507-1.459c-5.032-5.812-3.889-12.734,0.706-18.387
			c0.949-1.167,0.077-2.818-1.459-2.507c-5.953,1.204-12.671,6.454-18.813,3.933c-1.79-0.735-2.562,2.168-0.797,2.893
			c6.897,2.831,13.789-2.594,20.406-3.933c-0.486-0.835-0.973-1.671-1.459-2.507c-5.706,7.019-6.865,15.517-0.706,22.629
			c1.012,1.168,2.891-0.073,2.507-1.459c-0.371-1.341-0.823-2.646-1.195-3.986c-0.421-1.517-2.397-1.338-2.893,0
			c-1.9,5.14,2.185,9.356,6.206,11.997C287.021,106.924,288.523,104.326,286.913,103.269L286.913,103.269z"/>
	</g>
</g>
<g>
	<g>
		<path fill="#FFFFFF" d="M262.188,83.237c2.748,0.245,5.134-0.44,7.353-2.069c2.383-1.75,4.171-4.023,7.152-4.787
			c1.873-0.479,1.078-3.373-0.797-2.893c-5.268,1.348-7.901,7.266-13.708,6.748C260.261,80.065,260.277,83.067,262.188,83.237
			L262.188,83.237z"/>
	</g>
</g>
<g>
	<g>
		<path fill="#FFFFFF" d="M267.807,87.722c0.166-1.073,0.807-1.857,1.478-2.757c0.49-0.657,0.108-1.673-0.538-2.052
			c-0.765-0.448-1.564-0.116-2.052,0.539c-0.787,1.055-1.575,2.139-1.78,3.473c-0.125,0.808,0.191,1.61,1.048,1.845
			C266.68,88.967,267.682,88.531,267.807,87.722L267.807,87.722z"/>
	</g>
</g>
<g>
	<g>
		<path fill="#FFFFFF" d="M268.854,93.924c0.896-1.167,2.101-1.984,3.32-2.771c1.62-1.044,0.117-3.642-1.514-2.591
			c-1.687,1.087-3.168,2.246-4.396,3.847c-0.499,0.651-0.102,1.678,0.538,2.053C267.574,94.914,268.357,94.571,268.854,93.924
			L268.854,93.924z"/>
	</g>
</g>
<g>
	<g>
		<path fill="#FFFFFF" d="M271.086,95.589c0.973-1.357,1.539-2.95,2.52-4.308c0.479-0.665,0.116-1.669-0.538-2.053
			c-0.757-0.443-1.574-0.123-2.052,0.538c-0.981,1.358-1.548,2.951-2.52,4.309c-0.478,0.666-0.118,1.667,0.538,2.052
			C269.789,96.569,270.611,96.252,271.086,95.589L271.086,95.589z"/>
	</g>
</g>
<g>
	<g>
		<path fill="#FFFFFF" d="M271.533,95.923c1.107-2.466,2.296-4.895,3.404-7.36c0.786-1.749-1.798-3.276-2.59-1.514
			c-1.108,2.465-2.297,4.894-3.404,7.359C268.157,96.158,270.742,97.685,271.533,95.923L271.533,95.923z"/>
	</g>
</g>
<g>
	<g>
		<path fill="#FFFFFF" d="M269.938,95.204c1.935,0,1.935-3,0-3S268.004,95.204,269.938,95.204L269.938,95.204z"/>
	</g>
</g>
<g>
	<g>
		<path fill="#FFFFFF" d="M270.688,98.857c1.935,0,1.935-3,0-3S268.753,98.857,270.688,98.857L270.688,98.857z"/>
	</g>
</g>
<g>
	<g>
		<path fill="#FFFFFF" d="M254.905,82.754c1.935,0,1.935-3,0-3S252.971,82.754,254.905,82.754L254.905,82.754z"/>
	</g>
</g>
<g>
	<g>
		<path fill="#FFFFFF" d="M256.692,84.086c1.935,0,1.935-3,0-3S254.758,84.086,256.692,84.086L256.692,84.086z"/>
	</g>
</g>
<g>
	<g>
		<path fill="#FFFFFF" d="M282.245,100.542c-2.631-4.108-3.86-8.119-1.956-12.789c0.73-1.792-2.172-2.564-2.893-0.798
			c-2.187,5.361-0.759,10.389,2.259,15.101C280.694,103.679,283.292,102.176,282.245,100.542L282.245,100.542z"/>
	</g>
</g>
<rect x="103.645" y="263.155" transform="matrix(0.8016 0.5979 -0.5979 0.8016 189.3132 -30.5359)" fill="#FFFFFF" stroke="#FFFFFF" stroke-miterlimit="10" width="74.035" height="13.602"/>
<rect x="109.672" y="270.178" transform="matrix(0.8016 0.5979 -0.5979 0.8016 200.3344 -14.1089)" fill="#FFFFFF" stroke="#FFFFFF" stroke-miterlimit="10" width="23.504" height="49.18"/>
<ellipse transform="matrix(0.8016 0.5979 -0.5979 0.8016 210.0794 0.4709)" fill="#FFFFFF" stroke="#FFFFFF" stroke-miterlimit="10" cx="104.33" cy="316.767" rx="15.098" ry="8.251"/>
<g>
	<g>
		<path fill="#FFFFFF" d="M266.232,85.177c4.949,0.333,8.96-1.437,13.079-3.996c1.64-1.019,0.135-3.615-1.514-2.591
			c-3.685,2.29-7.125,3.886-11.565,3.587C264.3,82.047,264.313,85.048,266.232,85.177L266.232,85.177z"/>
	</g>
</g>
<g>
	<g>
		<path fill="#FFFFFF" d="M258.875,81.125c0,0.146,0,0.292,0,0.438c0,1.935,3,1.935,3,0c0-0.146,0-0.292,0-0.438
			C261.875,79.19,258.875,79.19,258.875,81.125L258.875,81.125z"/>
	</g>
</g>
<g>
	<g>
		<path fill="#FFFFFF" d="M264.688,81.563c1.855-0.115,3.678-0.617,5.398-1.304c0.759-0.303,1.283-0.99,1.048-1.845
			c-0.198-0.722-1.084-1.351-1.845-1.047c-1.456,0.581-3.028,1.099-4.602,1.196C262.766,78.681,262.755,81.682,264.688,81.563
			L264.688,81.563z"/>
	</g>
</g>
<g>
	<g>
		<path fill="#FFFFFF" d="M274.757,79.545c0.946-0.604,1.981-1.4,2.314-2.521c0.232-0.784-0.271-1.632-1.048-1.845
			c-0.8-0.22-1.612,0.264-1.845,1.047c0.103-0.206,0.113-0.233,0.032-0.08c-0.09,0.133-0.084,0.128,0.017-0.012
			c-0.116,0.139-0.253,0.262-0.388,0.383c-0.069,0.062-0.141,0.122-0.213,0.18c0.124-0.094,0.119-0.092-0.015,0.008
			c-0.12,0.088-0.244,0.17-0.369,0.25c-0.688,0.439-0.964,1.326-0.538,2.052C273.105,79.691,274.067,79.985,274.757,79.545
			L274.757,79.545z"/>
	</g>
</g>
<g>
	<g>
		<path fill="#FFFFFF" d="M272.054,82.351c-0.07,0.271-0.013,0.205,0.174-0.199c0.063-0.073,0.42-0.213,0.125-0.136
			c-0.217,0.056-0.441,0.083-0.66,0.132c-0.563,0.126-1.075,0.45-1.458,0.876c-0.782,0.872-1.696,2.21-1.368,3.438
			c0.498,1.867,3.393,1.074,2.893-0.798c0.036,0.144,0.041,0.288,0.016,0.432c0.053-0.152,0.051-0.156-0.005-0.012
			c0.107-0.236,0.25-0.457,0.392-0.673c0.057-0.085,0.116-0.169,0.177-0.251c-0.09,0.114-0.083,0.109,0.018-0.015
			c0.193-0.229,0.279-0.164,0.005-0.069c0.465-0.162,0.928-0.187,1.388-0.389c0.62-0.272,1.069-0.881,1.198-1.538
			c0.158-0.802-0.216-1.617-1.048-1.845C273.155,81.099,272.212,81.549,272.054,82.351L272.054,82.351z"/>
	</g>
</g>
<g>
	<g>
		<path fill="#FFFFFF" d="M272.393,86.569c0.887,1.451,1.556,2.946,3.271,3.564c0.611,0.221,1.393-0.134,1.693-0.689
			c0.351-0.647,0.403-1.286,0.393-2.007c-0.028-1.933-3.028-1.936-3,0c0.001,0.125,0.004,0.249,0.007,0.374
			c0.008,0.404-0.02,0.175,0.011,0.12c0.564-0.23,1.129-0.46,1.693-0.689c0.129,0.063,0.114,0.053-0.043-0.03
			c-0.357-0.195,0.141,0.153-0.16-0.128c-0.235-0.22-0.215-0.222-0.428-0.556c-0.305-0.477-0.552-0.989-0.848-1.472
			C273.976,83.408,271.381,84.914,272.393,86.569L272.393,86.569z"/>
	</g>
</g>
<g>
	<g>
		<path fill="#FFFFFF" d="M265,83.563c-0.667,0.065-1.317,0.263-1.748,0.814c-0.503,0.644-0.631,1.491,0,2.121
			c0.525,0.525,1.616,0.646,2.121,0c0.024-0.031,0.049-0.062,0.072-0.093c-0.126,0.103-0.274,0.155-0.445,0.157
			c0.813-0.08,1.5-0.622,1.5-1.5C266.5,84.305,265.815,83.483,265,83.563L265,83.563z"/>
	</g>
</g>
<g>
	<g>
		<path fill="#FFFFFF" d="M276.75,93.438c-0.021,0-0.042,0-0.063,0c-1.935,0-1.935,3,0,3c0.021,0,0.042,0,0.063,0
			C278.685,96.438,278.685,93.438,276.75,93.438L276.75,93.438z"/>
	</g>
</g>
<g>
	<g>
		<path fill="#FFFFFF" d="M288.063,105.563c0.063-1.521,0.12-3.041,0.125-4.563c0.006-1.935-2.994-1.934-3,0
			c-0.005,1.522-0.062,3.042-0.125,4.563C284.982,107.498,287.982,107.49,288.063,105.563L288.063,105.563z"/>
	</g>
</g>
<g>
	<g>
		<path fill="#FFFFFF" d="M285.188,100c0.005-0.768,0.354-1.452,0.644-2.148c0.327-0.784,0.538-1.559,0.544-2.415
			c0.014-1.935-2.986-1.934-3,0c-0.005,0.749-0.363,1.422-0.644,2.102c-0.33,0.798-0.538,1.591-0.544,2.461
			C282.175,101.935,285.175,101.934,285.188,100L285.188,100z"/>
	</g>
</g>
<g>
	<g>
		<path fill="#FFFFFF" d="M285.071,70.914c0.132,0.501-0.556,1.161-0.946,1.149c0.817,0.025,1.5-0.702,1.5-1.5
			c0-0.837-0.683-1.475-1.5-1.5c-1.465-0.045-2.296,1.317-1.946,2.649c0.207,0.791,1.064,1.262,1.845,1.047
			C284.818,72.541,285.279,71.704,285.071,70.914L285.071,70.914z"/>
	</g>
</g>
<g>
	<g>
		<path fill="#FFFFFF" d="M290.438,71.688c-0.036-0.899,0.229-1.747,0.25-2.688c0.019-0.818-0.696-1.5-1.5-1.5
			c-0.832,0-1.481,0.683-1.5,1.5c-0.02,0.875-0.287,1.761-0.25,2.688c0.032,0.817,0.658,1.5,1.5,1.5
			C289.73,73.188,290.47,72.505,290.438,71.688L290.438,71.688z"/>
	</g>
</g>
<g>
	<g>
		<path fill="#FFFFFF" d="M289.625,79.625c0-1.083,0-2.167,0-3.25c0-1.935-3-1.935-3,0c0,1.083,0,2.167,0,3.25
			C286.625,81.56,289.625,81.56,289.625,79.625L289.625,79.625z"/>
	</g>
</g>
<g>
	<g>
		<path fill="#FFFFFF" d="M287,83c0.004-1.021,0.059-2.042,0.063-3.063c0.008-1.935-2.992-1.934-3,0
			c-0.004,1.021-0.059,2.042-0.063,3.063C283.992,84.935,286.992,84.934,287,83L287,83z"/>
	</g>
</g>
<g>
	<g>
		<path fill="#FFFFFF" d="M283.875,79.688c1.935,0,1.935-3,0-3S281.94,79.688,283.875,79.688L283.875,79.688z"/>
	</g>
</g>
<g>
	<g>
		<path fill="#FFFFFF" d="M275.501,87.521c1.935,0,1.935-3,0-3S273.566,87.521,275.501,87.521L275.501,87.521z"/>
	</g>
</g>
<g>
	<g>
		<path fill="#FFFFFF" d="M282.542,77.583c1.935,0,1.935-3,0-3S280.607,77.583,282.542,77.583L282.542,77.583z"/>
	</g>
</g>
<rect x="161.063" y="66.943" transform="matrix(-0.8016 0.5979 -0.5979 -0.8016 434.4207 207.3675)" fill="#FFFFFF" stroke="#FFFFFF" stroke-miterlimit="10" width="43.48" height="217.645"/>
<line fill="none" stroke="#FFFFFF" stroke-miterlimit="10" x1="135.166" y1="75.538" x2="98.258" y2="62.417"/>
<line fill="none" stroke="#FFFFFF" stroke-miterlimit="10" x1="98.258" y1="62.417" x2="100.313" y2="101.534"/>
<line fill="none" stroke="#FFFFFF" stroke-miterlimit="10" x1="135.638" y1="75.187" x2="100.784" y2="101.183"/>
<g>
	<g>
		<path fill="#FFFFFF" d="M119.344,82.834c1.935,0,1.935-3,0-3S117.409,82.834,119.344,82.834L119.344,82.834z"/>
	</g>
</g>
<g>
	<g>
		<path fill="#FFFFFF" d="M120.554,79.543c-4.7-5.962-12.371-8.626-16.679-14.92c-1.085-1.586-3.687-0.087-2.591,1.514
			c4.493,6.565,12.282,9.355,17.149,15.528C119.63,83.183,121.737,81.045,120.554,79.543L120.554,79.543z"/>
	</g>
</g>
<g>
	<g>
		<path fill="#FFFFFF" d="M98.909,64.815c3.872,5.33,6.009,11.049,7.544,17.411c0.454,1.88,3.347,1.083,2.893-0.798
			c-1.596-6.61-3.823-12.589-7.846-18.127C100.374,61.753,97.77,63.248,98.909,64.815L98.909,64.815z"/>
	</g>
</g>
<g>
	<g>
		<path fill="#FFFFFF" d="M100.97,75.032c2.314,3.06,5.193,6.001,6.073,9.848c0.431,1.885,3.324,1.085,2.893-0.798
			c-0.948-4.143-3.883-7.27-6.375-10.564C102.41,71.996,99.802,73.488,100.97,75.032L100.97,75.032z"/>
	</g>
</g>
<g>
	<g>
		<path fill="#FFFFFF" d="M101.564,75.827c3.818,5.318,6.613,11.621,11.798,15.807c0.776,0.627,2.302,0.569,2.507-0.662
			c1.002-6.014-3.399-10.322-6.814-14.747c-1.018-1.319-3.104-0.599-2.742,1.156c1.472,7.126,7.729,18.441,15.566,10.718
			c0.345-0.339,0.583-0.984,0.386-1.459c-2.383-5.761-8.008-8.217-12.856-11.62c-1.273-0.894-2.775,0.818-2.052,2.052
			c2.457,4.197,4.275,9.264,9.914,9.12c6.506-0.166,10.963-7.034,16.513-9.438c-0.504-0.864-1.009-1.727-1.514-2.591
			c-9.788,7.389-18.799,15.759-28.872,22.773c-1.576,1.097-0.078,3.699,1.514,2.591c10.076-7.017,19.083-15.383,28.872-22.773
			c1.551-1.171,0.271-3.364-1.514-2.591c-4.202,1.821-7.26,5.187-11.071,7.627c-6.211,3.978-8.625-1.745-11.251-6.231
			c-0.684,0.684-1.368,1.368-2.052,2.052c1.972,1.384,4.022,2.642,6.04,3.957c1.427,0.93,2.7,2.013,3.884,3.231
			c2.856,2.941-1.498,3.317-2.971,2.511c-3.306-1.808-4.936-7.31-5.642-10.728c-0.914,0.385-1.828,0.771-2.742,1.156
			c2.666,3.453,7.314,7.62,6.512,12.434c0.835-0.221,1.671-0.441,2.507-0.662c-4.981-4.022-7.658-10.086-11.329-15.199
			C103.037,72.757,100.434,74.252,101.564,75.827L101.564,75.827z"/>
	</g>
</g>
<path fill="none" stroke="#FFFFFF" stroke-miterlimit="10" d="M126.04,76.34c-5.796,0.611,7.396,19.23,7.396,19.23"/>
<g>
	<g>
		<path fill="#FFFFFF" d="M111.765,91.048c-5.992-6.856-5.449-16.97-10.568-24.427c-1.087-1.584-3.689-0.086-2.591,1.514
			c5.293,7.711,4.764,17.856,11.038,25.034C110.919,94.628,113.032,92.498,111.765,91.048L111.765,91.048z"/>
	</g>
</g>
<g>
	<g>
		<path fill="#FFFFFF" d="M126.136,78.213c-6.682-2.214-14.053-5.737-18.103-11.742c-1.076-1.594-3.676-0.095-2.591,1.515
			c4.529,6.715,12.401,10.637,19.896,13.12C127.18,81.716,127.963,78.818,126.136,78.213L126.136,78.213z"/>
	</g>
</g>
<g>
	<g>
		<path fill="#FFFFFF" d="M130.454,73.755c-10.367-1.959-19.565-9.262-30.403-8.607c-1.019,0.062-1.645,0.906-1.446,1.899
			c2.058,10.314-0.8,20.837,2.321,31.058c0.563,1.845,3.459,1.058,2.893-0.798c-3.109-10.181-0.263-20.746-2.321-31.058
			c-0.482,0.633-0.964,1.266-1.446,1.899c10.48-0.633,19.55,6.6,29.605,8.5C131.546,77.005,132.353,74.114,130.454,73.755
			L130.454,73.755z"/>
	</g>
</g>
<g>
	<g>
		<path fill="#FFFFFF" d="M106.047,98.298c2.637-6.98-0.237-13.818-2.788-20.372c-0.694-1.782-3.596-1.008-2.893,0.798
			c2.342,6.017,5.224,12.329,2.788,18.776C102.469,99.313,105.37,100.089,106.047,98.298L106.047,98.298z"/>
	</g>
</g>
<g>
	<g>
		<path fill="#FFFFFF" d="M101.792,82.171c-0.104,5.34-1.415,10.717-0.123,15.997c0.459,1.878,3.353,1.082,2.893-0.798
			c-1.213-4.959,0.132-10.176,0.23-15.199C104.83,80.236,101.83,80.239,101.792,82.171L101.792,82.171z"/>
	</g>
</g>
<g>
	<g>
		<path fill="#FFFFFF" d="M103.126,100.859c4.022-2.641,8.107-6.857,6.206-11.997c-0.495-1.338-2.472-1.517-2.893,0
			c-0.372,1.341-0.824,2.646-1.195,3.986c-0.384,1.387,1.496,2.627,2.507,1.459c6.159-7.112,5-15.61-0.706-22.629
			c-0.486,0.835-0.973,1.671-1.459,2.507c6.618,1.339,13.509,6.764,20.407,3.933c1.764-0.724,0.993-3.627-0.798-2.893
			c-6.142,2.521-12.859-2.729-18.812-3.933c-1.537-0.311-2.408,1.34-1.459,2.507c4.595,5.653,5.739,12.575,0.706,18.387
			c0.835,0.486,1.671,0.973,2.507,1.459c0.372-1.341,0.824-2.646,1.195-3.986c-0.964,0-1.928,0-2.893,0
			c1.437,3.886-1.982,6.741-4.827,8.608C100.002,99.326,101.504,101.924,103.126,100.859L103.126,100.859z"/>
	</g>
</g>
<g>
	<g>
		<path fill="#FFFFFF" d="M126.337,75.237c-5.806,0.518-8.441-5.4-13.708-6.748c-1.875-0.48-2.671,2.413-0.798,2.893
			c2.827,0.724,4.643,2.801,6.85,4.552c2.258,1.792,4.783,2.56,7.656,2.304C128.248,78.067,128.265,75.065,126.337,75.237
			L126.337,75.237z"/>
	</g>
</g>
<g>
	<g>
		<path fill="#FFFFFF" d="M123.611,81.924c-0.206-1.334-0.993-2.418-1.78-3.473c-0.488-0.654-1.288-0.986-2.052-0.539
			c-0.646,0.379-1.028,1.396-0.539,2.052c0.671,0.9,1.313,1.684,1.478,2.757c0.125,0.809,1.126,1.245,1.845,1.047
			C123.419,83.534,123.736,82.732,123.611,81.924L123.611,81.924z"/>
	</g>
</g>
<g>
	<g>
		<path fill="#FFFFFF" d="M122.262,87.409c-1.229-1.601-2.71-2.759-4.397-3.847c-1.631-1.051-3.134,1.547-1.514,2.591
			c1.22,0.786,2.425,1.604,3.32,2.771c0.497,0.647,1.28,0.99,2.052,0.538C122.363,89.087,122.761,88.06,122.262,87.409
			L122.262,87.409z"/>
	</g>
</g>
<g>
	<g>
		<path fill="#FFFFFF" d="M120.03,89.075c-0.972-1.357-1.539-2.95-2.52-4.309c-0.478-0.661-1.295-0.981-2.052-0.538
			c-0.654,0.383-1.018,1.388-0.539,2.053c0.981,1.358,1.548,2.951,2.52,4.308c0.475,0.664,1.298,0.98,2.052,0.539
			C120.148,90.743,120.507,89.741,120.03,89.075L120.03,89.075z"/>
	</g>
</g>
<g>
	<g>
		<path fill="#FFFFFF" d="M119.583,89.408c-1.107-2.466-2.296-4.894-3.404-7.359c-0.792-1.762-3.377-0.235-2.591,1.514
			c1.108,2.466,2.297,4.894,3.404,7.36C117.783,92.685,120.368,91.158,119.583,89.408L119.583,89.408z"/>
	</g>
</g>
<g>
	<g>
		<path fill="#FFFFFF" d="M118.587,90.204c1.935,0,1.935-3,0-3S116.652,90.204,118.587,90.204L118.587,90.204z"/>
	</g>
</g>
<g>
	<g>
		<path fill="#FFFFFF" d="M117.838,93.857c1.935,0,1.935-3,0-3S115.903,93.857,117.838,93.857L117.838,93.857z"/>
	</g>
</g>
<g>
	<g>
		<path fill="#FFFFFF" d="M133.62,77.754c1.935,0,1.935-3,0-3S131.686,77.754,133.62,77.754L133.62,77.754z"/>
	</g>
</g>
<g>
	<g>
		<path fill="#FFFFFF" d="M131.833,79.086c1.935,0,1.935-3,0-3S129.898,79.086,131.833,79.086L131.833,79.086z"/>
	</g>
</g>
<g>
	<g>
		<path fill="#FFFFFF" d="M108.871,97.056c3.017-4.711,4.444-9.74,2.258-15.101c-0.72-1.766-3.624-0.995-2.893,0.798
			c1.904,4.67,0.674,8.681-1.957,12.789C105.233,97.176,107.831,98.679,108.871,97.056L108.871,97.056z"/>
	</g>
</g>
<rect x="210.844" y="258.155" transform="matrix(-0.8016 0.5979 -0.5979 -0.8016 604.9574 329.1476)" fill="#FFFFFF" stroke="#FFFFFF" stroke-miterlimit="10" width="74.036" height="13.602"/>
<rect x="255.35" y="265.178" transform="matrix(-0.8016 0.5979 -0.5979 -0.8016 654.455 362.3378)" fill="#FFFFFF" stroke="#FFFFFF" stroke-miterlimit="10" width="23.504" height="49.18"/>
<ellipse transform="matrix(-0.8016 0.5979 -0.5979 -0.8016 698.3988 391.7722)" fill="#FFFFFF" stroke="#FFFFFF" stroke-miterlimit="10" cx="284.195" cy="311.767" rx="15.098" ry="8.251"/>
<g>
	<g>
		<path fill="#FFFFFF" d="M122.293,77.177c-4.44,0.299-7.881-1.297-11.565-3.587c-1.648-1.024-3.153,1.572-1.514,2.591
			c4.119,2.559,8.13,4.33,13.079,3.996C124.212,80.048,124.225,77.047,122.293,77.177L122.293,77.177z"/>
	</g>
</g>
<g>
	<g>
		<path fill="#FFFFFF" d="M126.65,76.125c0,0.146,0,0.292,0,0.438c0,1.935,3,1.935,3,0c0-0.146,0-0.292,0-0.438
			C129.65,74.19,126.65,74.19,126.65,76.125L126.65,76.125z"/>
	</g>
</g>
<g>
	<g>
		<path fill="#FFFFFF" d="M123.838,73.563c-1.573-0.097-3.146-0.616-4.601-1.196c-0.761-0.304-1.646,0.325-1.845,1.047
			c-0.235,0.855,0.289,1.542,1.047,1.845c1.721,0.687,3.543,1.189,5.399,1.304C125.771,76.682,125.759,73.681,123.838,73.563
			L123.838,73.563z"/>
	</g>
</g>
<g>
	<g>
		<path fill="#FFFFFF" d="M115.282,71.955c-0.125-0.08-0.248-0.164-0.369-0.25c-0.134-0.1-0.139-0.102-0.015-0.008
			c-0.072-0.059-0.144-0.119-0.213-0.18c-0.138-0.119-0.265-0.249-0.387-0.383c0.101,0.141,0.106,0.145,0.017,0.012
			c-0.082-0.153-0.071-0.126,0.032,0.08c-0.232-0.783-1.045-1.268-1.845-1.047c-0.776,0.213-1.28,1.062-1.047,1.845
			c0.333,1.122,1.368,1.917,2.314,2.521c0.69,0.44,1.651,0.146,2.052-0.539C116.246,73.281,115.97,72.394,115.282,71.955
			L115.282,71.955z"/>
	</g>
</g>
<g>
	<g>
		<path fill="#FFFFFF" d="M113.579,78.149c0.254,1.29,1.34,1.642,2.456,1.892c0.349,0.079-0.172-0.197-0.01-0.05
			c0.05,0.049,0.098,0.101,0.144,0.154c0.276,0.308-0.173-0.25,0.106,0.138c0.153,0.212,0.287,0.438,0.413,0.668
			c0.081,0.168,0.089,0.178,0.024,0.028c0.113,0.286,0.028-0.218,0.054-0.315c-0.5,1.872,2.395,2.665,2.893,0.798
			c0.33-1.235-0.565-2.432-1.288-3.342c-0.366-0.461-0.858-0.744-1.409-0.936c-0.211-0.074-0.442-0.099-0.661-0.14
			c-0.063-0.012-0.455-0.142-0.119,0.005c0.167,0.073,0.375,0.738,0.29,0.302c-0.158-0.802-1.102-1.252-1.845-1.047
			C113.795,76.532,113.421,77.347,113.579,78.149L113.579,78.149z"/>
	</g>
</g>
<g>
	<g>
		<path fill="#FFFFFF" d="M113.542,80.056c-0.295,0.483-0.551,0.989-0.847,1.472c-0.157,0.257-0.228,0.34-0.323,0.447
			c-0.008,0.009-0.365,0.323-0.142,0.158c-0.028,0.021-0.422,0.201-0.167,0.109c0.565,0.229,1.129,0.459,1.694,0.689
			c0.004,0.021,0.008,0.043,0.012,0.064c-0.014-0.184,0.002-0.374,0.005-0.558c0.028-1.936-2.972-1.933-3,0
			c-0.011,0.721,0.042,1.36,0.392,2.007c0.301,0.555,1.083,0.91,1.694,0.689c1.715-0.618,2.384-2.113,3.271-3.564
			C117.145,79.914,114.549,78.408,113.542,80.056L113.542,80.056z"/>
	</g>
</g>
<g>
	<g>
		<path fill="#FFFFFF" d="M123.525,81.563c-0.114-0.029-0.229-0.059-0.343-0.087c-0.127-0.101-0.137-0.093-0.03,0.023
			c0.504,0.646,1.596,0.525,2.121,0c0.63-0.63,0.503-1.478,0-2.121c-0.431-0.551-1.081-0.749-1.748-0.814
			c-0.815-0.08-1.5,0.743-1.5,1.5C122.025,80.94,122.712,81.483,123.525,81.563L123.525,81.563z"/>
	</g>
</g>
<g>
	<g>
		<path fill="#FFFFFF" d="M111.775,91.438c0.021,0,0.042,0,0.063,0c1.935,0,1.935-3,0-3c-0.021,0-0.042,0-0.063,0
			C109.841,88.438,109.841,91.438,111.775,91.438L111.775,91.438z"/>
	</g>
</g>
<g>
	<g>
		<path fill="#FFFFFF" d="M103.463,100.563c-0.063-1.521-0.12-3.041-0.125-4.563c-0.006-1.934-3.006-1.935-3,0
			c0.005,1.522,0.062,3.042,0.125,4.563C100.543,102.49,103.543,102.498,103.463,100.563L103.463,100.563z"/>
	</g>
</g>
<g>
	<g>
		<path fill="#FFFFFF" d="M106.338,95c-0.006-0.87-0.214-1.663-0.543-2.461c-0.281-0.679-0.639-1.353-0.644-2.102
			c-0.013-1.934-3.013-1.935-3,0c0.006,0.856,0.217,1.63,0.543,2.415c0.29,0.696,0.639,1.38,0.644,2.148
			C103.351,96.934,106.351,96.935,106.338,95L106.338,95z"/>
	</g>
</g>
<g>
	<g>
		<path fill="#FFFFFF" d="M106.347,66.711c0.35-1.332-0.481-2.694-1.946-2.649c-0.817,0.025-1.5,0.663-1.5,1.5
			c0,0.798,0.683,1.525,1.5,1.5c-0.391,0.012-1.078-0.647-0.946-1.149c-0.208,0.791,0.253,1.627,1.047,1.845
			C105.283,67.974,106.139,67.502,106.347,66.711L106.347,66.711z"/>
	</g>
</g>
<g>
	<g>
		<path fill="#FFFFFF" d="M101.088,66.688c0.037-0.926-0.23-1.812-0.25-2.688c-0.019-0.817-0.668-1.5-1.5-1.5
			c-0.804,0-1.519,0.682-1.5,1.5c0.021,0.94,0.286,1.789,0.25,2.688c-0.032,0.817,0.707,1.5,1.5,1.5
			C100.43,68.188,101.056,67.504,101.088,66.688L101.088,66.688z"/>
	</g>
</g>
<g>
	<g>
		<path fill="#FFFFFF" d="M101.9,74.625c0-1.083,0-2.167,0-3.25c0-1.935-3-1.935-3,0c0,1.083,0,2.167,0,3.25
			C98.9,76.56,101.9,76.56,101.9,74.625L101.9,74.625z"/>
	</g>
</g>
<g>
	<g>
		<path fill="#FFFFFF" d="M104.525,78c-0.004-1.021-0.058-2.042-0.063-3.063c-0.008-1.934-3.008-1.935-3,0
			c0.004,1.021,0.059,2.042,0.063,3.063C101.533,79.934,104.533,79.935,104.525,78L104.525,78z"/>
	</g>
</g>
<g>
	<g>
		<path fill="#FFFFFF" d="M104.65,74.688c1.935,0,1.935-3,0-3S102.716,74.688,104.65,74.688L104.65,74.688z"/>
	</g>
</g>
<g>
	<g>
		<path fill="#FFFFFF" d="M113.024,82.521c1.935,0,1.935-3,0-3S111.09,82.521,113.024,82.521L113.024,82.521z"/>
	</g>
</g>
<g>
	<g>
		<path fill="#FFFFFF" d="M105.983,72.583c1.935,0,1.935-3,0-3S104.049,72.583,105.983,72.583L105.983,72.583z"/>
	</g>
</g>
</svg>
