<?xml version="1.0" encoding="utf-8"?>
<!-- Generator: Adobe Illustrator 16.0.3, SVG Export Plug-In . SVG Version: 6.00 Build 0)  -->
<!DOCTYPE svg PUBLIC "-//W3C//DTD SVG 1.1//EN" "http://www.w3.org/Graphics/SVG/1.1/DTD/svg11.dtd">
<svg version="1.1" id="Layer_1" xmlns="http://www.w3.org/2000/svg" xmlns:xlink="http://www.w3.org/1999/xlink" x="0px" y="0px"
	 width="50px" height="50px" viewBox="0 0 396 396" enable-background="new 0 0 396 396" xml:space="preserve">
<circle fill="none" stroke="#FFFFFF" stroke-width="15" stroke-miterlimit="10" cx="197.858" cy="198.294" r="188.863"/>
<rect x="64.252" y="162.77" transform="matrix(-0.8123 0.5832 -0.5832 -0.8123 397.5673 238.6075)" fill="#FFFFFF" stroke="#FFFFFF" stroke-miterlimit="10" width="192.283" height="41"/>
<rect x="220.539" y="96.181" transform="matrix(0.8123 -0.5832 0.5832 0.8123 -17.1626 172.0269)" fill="#FFFFFF" stroke="#FFFFFF" stroke-miterlimit="10" width="76.361" height="33.001"/>
<rect x="80.393" y="217.083" transform="matrix(-0.9763 0.2162 -0.2162 -0.9763 261.3383 498.5712)" fill="#FFFFFF" stroke="#FFFFFF" stroke-miterlimit="10" width="46" height="92.999"/>
<ellipse transform="matrix(0.8123 -0.5832 0.5832 0.8123 -108.3826 117.559)" fill="none" stroke="#FFFFFF" stroke-width="4" stroke-miterlimit="10" cx="128.477" cy="227.189" rx="34.834" ry="33.479"/>
<path fill="none" stroke="#FFFFFF" stroke-width="6" stroke-miterlimit="10" d="M136.816,219.692
	c-6.447,8.98-4.948,21.068,3.351,27.026"/>
<rect x="97.599" y="184.879" transform="matrix(0.8175 -0.5759 0.5759 0.8175 -95.0544 110.1196)" fill="#FFFFFF" stroke="#FFFFFF" stroke-width="4" stroke-miterlimit="10" width="57.294" height="40.361"/>
<rect x="126.16" y="161.77" transform="matrix(0.8123 0.5832 -0.5832 0.8123 148.0135 -95.4381)" fill="#FFFFFF" stroke="#FFFFFF" stroke-miterlimit="10" width="192.283" height="41"/>
<rect x="85.795" y="95.181" transform="matrix(-0.8123 -0.5832 0.5832 -0.8123 159.556 274.7051)" fill="#FFFFFF" stroke="#FFFFFF" stroke-miterlimit="10" width="76.361" height="33.001"/>
<rect x="256.302" y="216.083" transform="matrix(0.9763 0.2162 -0.2162 0.9763 63.3914 -54.1851)" fill="#FFFFFF" stroke="#FFFFFF" stroke-miterlimit="10" width="46" height="92.999"/>
<ellipse transform="matrix(-0.8123 -0.5832 0.5832 -0.8123 328.8194 558.1879)" fill="none" stroke="#FFFFFF" stroke-width="4" stroke-miterlimit="10" cx="254.218" cy="226.189" rx="34.834" ry="33.479"/>
<path fill="none" stroke="#FFFFFF" stroke-width="6" stroke-miterlimit="10" d="M245.879,218.692
	c6.447,8.98,4.948,21.068-3.351,27.026"/>
<rect x="227.802" y="183.879" transform="matrix(-0.8175 -0.5759 0.5759 -0.8175 348.5898 518.5696)" fill="#FFFFFF" stroke="#FFFFFF" stroke-width="4" stroke-miterlimit="10" width="57.294" height="40.362"/>
</svg>
