<?xml version="1.0" encoding="utf-8"?>
<!-- Generator: Adobe Illustrator 16.0.3, SVG Export Plug-In . SVG Version: 6.00 Build 0)  -->
<!DOCTYPE svg PUBLIC "-//W3C//DTD SVG 1.1//EN" "http://www.w3.org/Graphics/SVG/1.1/DTD/svg11.dtd">
<svg version="1.1" id="Layer_1" xmlns="http://www.w3.org/2000/svg" xmlns:xlink="http://www.w3.org/1999/xlink" x="0px" y="0px"
	 width="50px" height="50px" viewBox="0 0 396 396" enable-background="new 0 0 396 396" xml:space="preserve">
<circle fill="none" stroke="#FFFFFF" stroke-width="15" stroke-miterlimit="10" cx="197.858" cy="198.294" r="188.863"/>
<path fill="#FFFFFF" stroke="#FFFFFF" stroke-miterlimit="10" d="M253.574,116.723c12.081-0.273,21.886-9.078,30.4-16.582
	c4.965-4.375,9.734-8.938,14.233-13.742c-7.828-2.163-15.92-4.084-24.236-5.724c-78.1-15.393-147.526-0.666-160.515,32.894
	c6.049-0.841,12.396-0.786,18.081-1.147c10.811-0.686,21.167-4.103,31.866-3.683c1.005-0.861,2.375-1.356,4.047-1.146
	c14.057,1.77,28.229,0.306,42.317,1.59c14.111,1.285,28.05,4.068,41.938,6.804C252.436,116.132,253.054,116.389,253.574,116.723z"/>
<g>
	<path fill="#FFFFFF" d="M167.325,97.379c-0.329,2.993-5.22,5.341-4.498,8.287c0.828,3.73,7.569,1.237,10.877,1.634"/>
	<g>
		<path fill="#FFFFFF" d="M165.878,96.98c-0.62,3.346-7.409,6.875-3.63,10.771c2.893,2.982,7.889,0.742,11.456,1.048
			c1.928,0.166,1.913-2.836,0-3c-2.74-0.235-6.61,1.443-9.111,0.061c-1.445-0.799,1.362-3.498,1.859-4.059
			c1.043-1.177,2.026-2.444,2.319-4.023C169.122,95.887,166.23,95.08,165.878,96.98L165.878,96.98z"/>
	</g>
</g>
<g>
	<path fill="#FFFFFF" d="M163.24,107.531"/>
	<g>
		<path fill="#FFFFFF" d="M163.24,109.031c1.935,0,1.935-3,0-3S161.306,109.031,163.24,109.031L163.24,109.031z"/>
	</g>
</g>
<g>
	<path fill="#FFFFFF" d="M248.514,114.91c4.513,0.889,8.476,1.925,12.72,0.214c4.996-1.564,8.875-5.386,13.061-8.128
		c3.937-2.792,6.765-6.566,10.651-9.112c4.882-3.625,8.674-5.68,11.944-10.386"/>
	<g>
		<path fill="#FFFFFF" d="M248.115,116.356c4.646,0.932,8.91,1.726,13.517,0.214c5.093-1.671,9.066-5.309,13.419-8.279
			c4.718-3.22,8.532-7.623,13.21-10.959c3.754-2.677,7.156-5.344,9.924-9.078c1.154-1.556-1.452-3.049-2.59-1.514
			c-4.866,6.562-12.792,10.557-18.714,16.157c-3.241,3.065-7.167,5.671-10.854,8.184c-5.56,3.79-10.785,3.651-17.114,2.382
			C247.023,113.084,246.219,115.976,248.115,116.356L248.115,116.356z"/>
	</g>
</g>
<g>
	<path fill="#FFFFFF" d="M296.986,87.006c-7.077-2.414-14.945-3.456-22.168-5.133c-4.464-1.135-9.729-2.173-14.387-2.326
		c-4.406-0.104-8.505,0.872-12.824-0.999c2.198-0.585,4.956-0.042,7.309-0.088c-3.509-0.691-7.221-1.678-11.127-1.683
		c-4.658-0.154-9.056,1.018-13.867,0.325"/>
	<g>
		<path fill="#FFFFFF" d="M297.385,85.56c-8.221-2.665-16.838-3.931-25.247-5.867c-3.337-0.769-6.724-1.262-10.133-1.563
			c-4.813-0.425-9.309,0.648-13.999-1.028c0,0.964,0,1.928,0,2.893c2.305-0.384,4.598-0.082,6.91-0.035
			c1.671,0.034,2.075-2.603,0.398-2.946c-3.837-0.786-7.601-1.598-11.525-1.737c-4.655-0.164-9.202,0.792-13.867,0.325
			c-1.925-0.192-1.906,2.81,0,3c4.077,0.408,8.059-0.125,12.131-0.327c4.232-0.209,8.354,0.789,12.465,1.631
			c0.133-0.982,0.266-1.964,0.398-2.946c-2.615-0.053-5.116-0.29-7.707,0.142c-1.596,0.266-1.256,2.444,0,2.893
			c3.321,1.188,6.462,1.266,9.968,1.116c4.808-0.206,9.47,0.479,14.164,1.476c8.414,1.788,17.055,3.212,25.247,5.867
			C298.434,89.051,299.218,86.154,297.385,85.56L297.385,85.56z"/>
	</g>
</g>
<g>
	<path fill="#FFFFFF" d="M246.45,77.81c-5.661-0.351-11.031-2.174-16.692-2.525c-6.46-0.254-12.613,0.572-19.025,0.072
		c-12.074-0.85-24.023,1.636-35.78,3.141c-1.601,0.194-3.25,0.634-4.851,0.828"/>
	<g>
		<path fill="#FFFFFF" d="M246.45,76.31c-6.268-0.559-12.31-2.42-18.622-2.572c-6.969-0.167-13.926,0.159-20.904-0.044
			c-12.384-0.361-25.046,2.238-37.221,4.185c-1.906,0.305-1.094,3.195,0.798,2.893c12.647-2.022,25.473-4.397,38.327-4.022
			c6.354,0.185,12.646,0.002,19.001-0.012c6.281-0.014,12.385,2.015,18.622,2.572C248.378,79.482,248.361,76.48,246.45,76.31
			L246.45,76.31z"/>
	</g>
</g>
<g>
	<path fill="#FFFFFF" d="M170.902,79.228c-6.153,0.826-12.095,3.222-17.737,5.423c-5.295,1.759-10.445,2.783-15.538,4.836
		c-10.638,3.764-20.586,13.27-24.67,23.421"/>
	<g>
		<path fill="#FFFFFF" d="M170.503,77.782c-6.848,1.091-12.951,3.895-19.497,5.984c-5.674,1.811-11.395,3.189-16.893,5.535
			c-9.892,4.22-18.251,13.043-22.453,22.851c-0.753,1.758,1.831,3.288,2.591,1.515c4.152-9.692,11.895-17.272,21.376-21.775
			c5.666-2.69,11.99-3.896,17.936-5.794c5.98-1.908,11.471-4.424,17.737-5.423C173.208,80.371,172.396,77.48,170.503,77.782
			L170.503,77.782z"/>
	</g>
</g>
<g>
	<path fill="#FFFFFF" d="M112.31,113.546c4.802-0.583,9.654-1.41,14.408-1.747c5.604-0.679,11.699-2.535,17.359-2.185"/>
	<g>
		<path fill="#FFFFFF" d="M112.31,115.046c4.928-0.625,9.892-1.117,14.807-1.801c5.664-0.788,11.205-2.273,16.96-2.131
			c1.936,0.048,1.931-2.952,0-3c-4.875-0.121-9.571,0.848-14.344,1.716c-5.708,1.039-11.658,1.485-17.423,2.215
			C110.418,112.286,110.395,115.289,112.31,115.046L112.31,115.046z"/>
	</g>
</g>
<g>
	<path fill="#FFFFFF" d="M143.026,109.662c4.707-0.092,9.113,0.013,13.916-0.569c5.401-0.974,11.14-3.665,16.704-2.824"/>
	<g>
		<path fill="#FFFFFF" d="M143.026,111.162c4.663-0.072,9.724,0.331,14.315-0.623c5.452-1.132,10.646-3.283,16.305-2.77
			c1.927,0.175,1.911-2.827,0-3c-4.81-0.436-9.223,0.882-13.825,2.129c-5.438,1.473-11.211,1.178-16.794,1.264
			C141.094,108.192,141.091,111.192,143.026,111.162L143.026,111.162z"/>
	</g>
</g>
<g>
	<path fill="#FFFFFF" d="M247.512,114.712c-8.023-1.582-16.143-2.672-24.164-4.253"/>
	<g>
		<path fill="#FFFFFF" d="M247.91,113.266c-8.032-1.546-16.131-2.708-24.164-4.253c-1.89-0.364-2.695,2.527-0.797,2.893
			c8.032,1.546,16.132,2.707,24.164,4.253C249.003,116.522,249.809,113.631,247.91,113.266L247.91,113.266z"/>
	</g>
</g>
<g>
	<path fill="#FFFFFF" d="M223.896,110.313c-7.521-1.482-15.39-2.523-23.057-3.27"/>
	<g>
		<path fill="#FFFFFF" d="M224.295,108.866c-7.764-1.493-15.59-2.538-23.455-3.324c-1.925-0.192-1.906,2.81,0,3
			c7.6,0.76,15.156,1.774,22.658,3.216C225.388,112.123,226.193,109.231,224.295,108.866L224.295,108.866z"/>
	</g>
</g>
<g>
	<path fill="#FFFFFF" d="M200.34,106.943c-3.994,1.761-7.06,0.138-10.917-0.113c-4.658-0.153-9.152,1.509-13.666,0.619"/>
	<g>
		<path fill="#FFFFFF" d="M199.941,105.497c-4.109,1.39-8.068-0.193-12.258-0.147c-4.061,0.044-7.834,1.138-11.926,0.6
			c-1.914-0.252-1.89,2.751,0,3c4.602,0.605,9.065-0.569,13.666-0.619c4.194-0.046,7.126,1.476,11.315,0.059
			C202.561,107.773,201.779,104.875,199.941,105.497L199.941,105.497z"/>
	</g>
</g>
<g>
	<path fill="#FFFFFF" d="M157.945,109.29c8.11-0.185,15.314-1.059,23.165-2.569"/>
	<g>
		<path fill="#FFFFFF" d="M157.945,110.79c7.939-0.231,15.762-1.159,23.564-2.623c1.9-0.356,1.093-3.248-0.798-2.893
			c-7.542,1.415-15.095,2.292-22.766,2.515C156.015,107.846,156.01,110.846,157.945,110.79L157.945,110.79z"/>
	</g>
</g>
<rect x="193.521" y="59.352" transform="matrix(-0.8284 -0.5601 0.5601 -0.8284 274.2556 496.6206)" fill="#FFFFFF" stroke="#FFFFFF" stroke-miterlimit="10" width="39.33" height="293.911"/>
</svg>
