<?xml version="1.0" encoding="utf-8"?>
<!-- Generator: Adobe Illustrator 16.0.3, SVG Export Plug-In . SVG Version: 6.00 Build 0)  -->
<!DOCTYPE svg PUBLIC "-//W3C//DTD SVG 1.1//EN" "http://www.w3.org/Graphics/SVG/1.1/DTD/svg11.dtd">
<svg version="1.1" id="Layer_1" xmlns="http://www.w3.org/2000/svg" xmlns:xlink="http://www.w3.org/1999/xlink" x="0px" y="0px"
	 width="150px" height="150px" viewBox="0 0 396 396" enable-background="new 0 0 396 396" xml:space="preserve">
<circle fill="none" stroke="#FF0000" stroke-width="15" stroke-miterlimit="10" cx="197.858" cy="197.294" r="188.863"/>
<polygon fill="#FF0000" stroke="#FF0000" stroke-miterlimit="10" points="198.266,122.707 235.585,53.002 234.313,132.728 
	300.223,91.722 260.7,160.106 337.544,158.787 270.36,197.507 337.544,236.229 260.7,234.907 300.223,303.292 234.313,262.285 
	235.585,342.01 198.266,272.308 160.946,342.01 162.218,262.285 96.307,303.292 135.83,234.907 58.988,236.229 126.171,197.507 
	58.988,158.787 135.83,160.106 96.307,91.722 162.218,132.728 160.946,53.002 "/>
<text transform="matrix(1 -0.0059 0.0059 1 139.0303 224.5449)" fill="#FFFFFF" font-family="'ArialRoundedMTBold'" font-size="94">S</text>
<text transform="matrix(1 0 0 1 194.8569 238.5449)" fill="#FFFFFF" font-family="'ArialRoundedMTBold'" font-size="94">H</text>
</svg>
