<?xml version="1.0" encoding="utf-8"?>
<!-- Generator: Adobe Illustrator 16.0.3, SVG Export Plug-In . SVG Version: 6.00 Build 0)  -->
<!DOCTYPE svg PUBLIC "-//W3C//DTD SVG 1.1//EN" "http://www.w3.org/Graphics/SVG/1.1/DTD/svg11.dtd">
<svg version="1.1" id="Layer_1" xmlns="http://www.w3.org/2000/svg" xmlns:xlink="http://www.w3.org/1999/xlink" x="0px" y="0px"
	 width="50px" height="50px" viewBox="0 0 396 396" enable-background="new 0 0 396 396" xml:space="preserve">
<circle fill="none" stroke="#FFFFFF" stroke-width="15" stroke-miterlimit="10" cx="197.858" cy="198.294" r="188.863"/>
<path fill="#FFFFFF" stroke="#FFFFFF" stroke-miterlimit="10" d="M264.823,101.323c8.24,0.104,15.773,4.867,23.455,7.128
	c8.257,2.431,12.17-1.595,15.215-8.607c3.262-7.513,15.904-3.362,12.637,4.165c-3.004,6.92-7.176,13.604-14.849,16.546
	c-7.025,2.692-14.811,0.819-21.605-1.541c-6.526-2.268-15.13-8.024-21.784-3.325c-5.925,4.183-9.149,12.333-12.779,18.188
	c-4.356,7.029-15.329-0.202-11.005-7.179C241.461,114.839,248.05,101.11,264.823,101.323z"/>
<polygon fill="#FFFFFF" stroke="#FFFFFF" stroke-miterlimit="10" points="141.737,345.017 81.788,305.822 157.44,203.053 
	217.387,242.246 "/>
<rect x="189.298" y="103.483" transform="matrix(0.8031 0.5958 -0.5958 0.8031 146.8677 -100.3178)" fill="#FFFFFF" stroke="#FFFFFF" stroke-miterlimit="10" width="71.857" height="137.173"/>
</svg>
