<?xml version="1.0" encoding="utf-8"?>
<!-- Generator: Adobe Illustrator 16.0.3, SVG Export Plug-In . SVG Version: 6.00 Build 0)  -->
<!DOCTYPE svg PUBLIC "-//W3C//DTD SVG 1.1//EN" "http://www.w3.org/Graphics/SVG/1.1/DTD/svg11.dtd">
<svg version="1.1" id="Layer_1" xmlns="http://www.w3.org/2000/svg" xmlns:xlink="http://www.w3.org/1999/xlink" x="0px" y="0px"
	 width="50px" height="50px" viewBox="0 0 396 396" enable-background="new 0 0 396 396" xml:space="preserve">
<circle fill="none" stroke="#FFFFFF" stroke-width="15" stroke-miterlimit="10" cx="197.858" cy="198.294" r="188.863"/>
<ellipse fill="#FFFFFF" stroke="#FFFFFF" stroke-miterlimit="10" cx="162" cy="207.5" rx="72" ry="93"/>
<ellipse fill="#FFFFFF" stroke="#FFFFFF" stroke-miterlimit="10" cx="225.5" cy="207.5" rx="80.5" ry="93"/>
<g>
	<path d="M191.5,125.942c0.02-6.572,0.704-11.975,2.889-17.505c2.393-6.054,6.998-7.976,10.111-12.937"/>
	<path fill="#FFFFFF" d="M191.5,125.942c0,0-0.119-0.139-0.302-0.397c-0.169-0.257-0.465-0.637-0.749-1.117
		c-0.299-0.481-0.625-1.063-0.96-1.729c-0.316-0.685-0.709-1.374-0.936-2.286c-0.248-0.887-0.471-1.869-0.644-2.924
		c-0.086-0.526-0.188-1.079-0.205-1.628c-0.018-0.548-0.014-1.11,0-1.683c0.054-1.141,0.065-2.344,0.333-3.519
		c0.273-1.174,0.607-2.36,0.996-3.527l0.151-0.435l0.076-0.217l0.02-0.054l0.171-0.389l0.044-0.09
		c0.116-0.242,0.246-0.477,0.371-0.713c0.125-0.237,0.25-0.473,0.386-0.703c0.154-0.252,0.209-0.407,0.476-0.774
		c0.446-0.646,0.915-1.269,1.396-1.856c0.243-0.319,0.481-0.537,0.709-0.75c0.229-0.221,0.47-0.428,0.702-0.636
		c0.469-0.426,0.935-0.803,1.401-1.091c0.461-0.308,0.928-0.615,1.378-0.86c0.862-0.452,1.754-0.869,2.498-1.155
		c0.793-0.299,1.52-0.553,2.165-0.774c0.672-0.216,1.289-0.406,1.781-0.588c0.497-0.182,0.962-0.301,1.255-0.405
		c0.318-0.092,0.488-0.141,0.488-0.141s0.028,0.174,0.041,0.488c0.002,0.307,0.038,0.789-0.008,1.374
		c-0.021,0.609-0.144,1.287-0.341,2.051c-0.091,0.388-0.222,0.789-0.35,1.214c-0.135,0.402-0.306,0.803-0.472,1.237
		c-0.373,0.876-0.731,1.677-1.176,2.53c-0.194,0.416-0.372,0.804-0.579,1.199c-0.1,0.192-0.201,0.387-0.304,0.584
		c-0.078,0.189-0.156,0.378-0.243,0.559c-0.086,0.182-0.166,0.369-0.261,0.544c-0.101,0.18-0.187,0.361-0.208,0.489
		c-0.083,0.282-0.185,0.541-0.313,0.782c-0.05,0.06-0.172,0.414-0.261,0.634c-0.093,0.25-0.196,0.497-0.301,0.743
		s-0.205,0.496-0.319,0.738l-0.042,0.092l-0.011,0.023l-0.005,0.011c-0.034,0.079,0.279-0.642,0.145-0.332l-0.012,0.042l-0.05,0.165
		l-0.102,0.33c-0.286,0.874-0.627,1.727-1.018,2.56c-0.383,0.836-0.644,1.711-1.052,2.529c-0.192,0.413-0.392,0.82-0.609,1.221
		c-0.208,0.401-0.35,0.8-0.555,1.189c-0.373,0.78-0.785,1.533-1.207,2.248c-0.232,0.349-0.419,0.708-0.607,1.08
		c-0.201,0.36-0.369,0.703-0.568,1.023c-0.377,0.642-0.739,1.2-1.069,1.659c-0.314,0.459-0.634,0.818-0.819,1.063
		C191.627,125.813,191.5,125.942,191.5,125.942z"/>
</g>
</svg>
