<?xml version="1.0" encoding="utf-8"?>
<!-- Generator: Adobe Illustrator 16.0.3, SVG Export Plug-In . SVG Version: 6.00 Build 0)  -->
<!DOCTYPE svg PUBLIC "-//W3C//DTD SVG 1.1//EN" "http://www.w3.org/Graphics/SVG/1.1/DTD/svg11.dtd">
<svg version="1.1" id="Layer_1" xmlns="http://www.w3.org/2000/svg" xmlns:xlink="http://www.w3.org/1999/xlink" x="0px" y="0px"
	 width="150px" height="150px" viewBox="0 0 150 150" enable-background="new 0 0 150 150" xml:space="preserve">
<circle fill="#22B573" cx="74.955" cy="75.063" r="70.312"/>
<circle fill="#FFFFFF" cx="74.581" cy="75.074" r="57.074"/>
<circle fill="#22B573" cx="75" cy="74.79" r="46"/>
<polygon fill="#22B573" points="124.477,119.462 105.491,108.501 105.495,42.497 121.438,33.292 135.417,74.333 "/>
<circle fill="#FFFFFF" cx="75.259" cy="75.303" r="34.327"/>
<ellipse transform="matrix(0.8648 -0.5021 0.5021 0.8648 -24.4823 50.9502)" fill="#22B573" cx="82.367" cy="70.936" rx="27.667" ry="34.12"/>
<path fill="#FFFFFF" stroke="#FFFFFF" stroke-miterlimit="10" d="M98.5,62.102c0,0.19-0.15,0.398-0.336,0.398H55.037
	c-0.186,0-0.537-0.208-0.537-0.398v-0.312c0-0.19,0.352-0.291,0.537-0.291h43.127c0.186,0,0.336,0.101,0.336,0.291V62.102z"/>
<path fill="#FFFFFF" stroke="#FFFFFF" stroke-miterlimit="10" d="M100.066,62.497c0.166,0.097,0.223,0.302,0.129,0.459
	L78.666,99.549c-0.094,0.159-0.303,0.207-0.465,0.11l-0.268-0.158c-0.166-0.096-0.223-0.302-0.129-0.458L99.334,62.45
	c0.094-0.157,0.303-0.206,0.465-0.11L100.066,62.497z"/>
<circle fill="#FFFFFF" cx="98.979" cy="62.625" r="5.813"/>
</svg>
